<svg xmlns="http://www.w3.org/2000/svg" viewBox="0 0 128 128" width="128" height="128">
  <g fill="currentColor" stroke="none">
    <rect x="-7.31" y="-3.66" width="14.63" height="7.31" rx="3.66" transform="translate(64,64) rotate(0) translate(0,-60.34)"/>
    <rect x="-7.31" y="-3.66" width="14.63" height="7.31" rx="3.66" transform="translate(64,64) rotate(22.5) translate(0,-60.34)"/>
    <rect x="-7.31" y="-3.66" width="14.63" height="7.31" rx="3.66" transform="translate(64,64) rotate(45) translate(0,-60.34)"/>
    <rect x="-7.31" y="-3.66" width="14.63" height="7.31" rx="3.66" transform="translate(64,64) rotate(67.5) translate(0,-60.34)"/>
    <rect x="-7.31" y="-3.66" width="14.63" height="7.31" rx="3.66" transform="translate(64,64) rotate(90) translate(0,-60.34)"/>
    <rect x="-7.31" y="-3.66" width="14.63" height="7.31" rx="3.66" transform="translate(64,64) rotate(112.5) translate(0,-60.34)"/>
    <rect x="-7.31" y="-3.66" width="14.63" height="7.31" rx="3.66" transform="translate(64,64) rotate(135) translate(0,-60.34)"/>
    <rect x="-7.31" y="-3.66" width="14.63" height="7.31" rx="3.66" transform="translate(64,64) rotate(157.5) translate(0,-60.34)"/>
    <rect x="-7.31" y="-3.66" width="14.63" height="7.31" rx="3.66" transform="translate(64,64) rotate(180) translate(0,-60.34)"/>
    <rect x="-7.31" y="-3.66" width="14.63" height="7.31" rx="3.66" transform="translate(64,64) rotate(202.5) translate(0,-60.34)"/>
    <rect x="-7.31" y="-3.66" width="14.63" height="7.31" rx="3.66" transform="translate(64,64) rotate(225) translate(0,-60.34)"/>
    <rect x="-7.31" y="-3.66" width="14.63" height="7.31" rx="3.66" transform="translate(64,64) rotate(247.5) translate(0,-60.34)"/>
    <rect x="-7.31" y="-3.66" width="14.63" height="7.31" rx="3.66" transform="translate(64,64) rotate(270) translate(0,-60.34)"/>
    <rect x="-7.31" y="-3.66" width="14.63" height="7.31" rx="3.66" transform="translate(64,64) rotate(292.5) translate(0,-60.34)"/>
    <rect x="-7.31" y="-3.66" width="14.63" height="7.31" rx="3.66" transform="translate(64,64) rotate(315) translate(0,-60.34)"/>
    <rect x="-7.31" y="-3.66" width="14.63" height="7.31" rx="3.66" transform="translate(64,64) rotate(337.5) translate(0,-60.34)"/>
  </g>
  <circle cx="64" cy="64" r="49.83" fill="none" stroke="currentColor" stroke-width="6.40"/>
  <circle cx="64" cy="64" r="34.74" fill="none" stroke="currentColor" stroke-width="15.54"/>
  <circle cx="64" cy="64" r="49.83" fill="none" stroke="#e8c840" stroke-width="6.40" stroke-linecap="round" stroke-dasharray="78.27 234.81" transform="rotate(-90 64 64)"/>
  <circle cx="64" cy="64" r="34.74" fill="none" stroke="#5ec269" stroke-width="15.54" stroke-linecap="round" stroke-dasharray="163.70 54.57" transform="rotate(-90 64 64)"/>
  <path fill="#5ec269" stroke="none" fill-rule="evenodd" opacity="0.92" d="M 75.70,54.86 L 70.95,50.83 L 52.30,73.14 L 57.05,77.17 Z M 44.62,53.76 A 9.14,9.14 0 1,1 62.90,53.76 A 9.14,9.14 0 1,1 44.62,53.76 Z M 51.05,53.76 A 2.71,2.71 0 1,1 56.47,53.76 A 2.71,2.71 0 1,1 51.05,53.76 Z M 65.10,74.24 A 9.14,9.14 0 1,1 83.38,74.24 A 9.14,9.14 0 1,1 65.10,74.24 Z M 71.53,74.24 A 2.71,2.71 0 1,1 76.95,74.24 A 2.71,2.71 0 1,1 71.53,74.24 Z"/>
</svg>
