<svg xmlns="http://www.w3.org/2000/svg" viewBox="0 0 35 35" width="35" height="35">
  <g fill="#443830">
    <rect x="-2" y="-1" width="4" height="2" rx="1" transform="translate(17.5,17.5) rotate(0) translate(0,-16.5)"/>
    <rect x="-2" y="-1" width="4" height="2" rx="1" transform="translate(17.5,17.5) rotate(22.5) translate(0,-16.5)"/>
    <rect x="-2" y="-1" width="4" height="2" rx="1" transform="translate(17.5,17.5) rotate(45) translate(0,-16.5)"/>
    <rect x="-2" y="-1" width="4" height="2" rx="1" transform="translate(17.5,17.5) rotate(67.5) translate(0,-16.5)"/>
    <rect x="-2" y="-1" width="4" height="2" rx="1" transform="translate(17.5,17.5) rotate(90) translate(0,-16.5)"/>
    <rect x="-2" y="-1" width="4" height="2" rx="1" transform="translate(17.5,17.5) rotate(112.5) translate(0,-16.5)"/>
    <rect x="-2" y="-1" width="4" height="2" rx="1" transform="translate(17.5,17.5) rotate(135) translate(0,-16.5)"/>
    <rect x="-2" y="-1" width="4" height="2" rx="1" transform="translate(17.5,17.5) rotate(157.5) translate(0,-16.5)"/>
    <rect x="-2" y="-1" width="4" height="2" rx="1" transform="translate(17.5,17.5) rotate(180) translate(0,-16.5)"/>
    <rect x="-2" y="-1" width="4" height="2" rx="1" transform="translate(17.5,17.5) rotate(202.5) translate(0,-16.5)"/>
    <rect x="-2" y="-1" width="4" height="2" rx="1" transform="translate(17.5,17.5) rotate(225) translate(0,-16.5)"/>
    <rect x="-2" y="-1" width="4" height="2" rx="1" transform="translate(17.5,17.5) rotate(247.5) translate(0,-16.5)"/>
    <rect x="-2" y="-1" width="4" height="2" rx="1" transform="translate(17.5,17.5) rotate(270) translate(0,-16.5)"/>
    <rect x="-2" y="-1" width="4" height="2" rx="1" transform="translate(17.5,17.5) rotate(292.5) translate(0,-16.5)"/>
    <rect x="-2" y="-1" width="4" height="2" rx="1" transform="translate(17.5,17.5) rotate(315) translate(0,-16.5)"/>
    <rect x="-2" y="-1" width="4" height="2" rx="1" transform="translate(17.5,17.5) rotate(337.5) translate(0,-16.5)"/>
  </g>
  <circle cx="17.5" cy="17.5" r="13.625" fill="none" stroke="#443830" stroke-width="1.75"/>
  <circle cx="17.5" cy="17.5" r="9.5" fill="none" stroke="#443830" stroke-width="4.25"/>
  <circle cx="17.5" cy="17.5" r="13.625" fill="none" stroke="#e8c840" stroke-width="1.75" stroke-linecap="round" stroke-dasharray="21.402 64.205" transform="rotate(-90 17.5 17.5)"/>
  <circle cx="17.5" cy="17.5" r="9.5" fill="none" stroke="#5ec269" stroke-width="4.25" stroke-linecap="round" stroke-dasharray="44.768 14.923" transform="rotate(-90 17.5 17.5)"/>
  <path fill="#5ec269" fill-rule="evenodd" opacity="0.92" d="M 20.7,15.0 L 19.4,13.9 L 14.3,20.0 L 15.6,21.1 Z M 12.2,14.7 A 2.5,2.5 0 1,1 17.2,14.7 A 2.5,2.5 0 1,1 12.2,14.7 Z M 13.96,14.7 A 0.74,0.74 0 1,1 15.44,14.7 A 0.74,0.74 0 1,1 13.96,14.7 Z M 17.8,20.3 A 2.5,2.5 0 1,1 22.8,20.3 A 2.5,2.5 0 1,1 17.8,20.3 Z M 19.56,20.3 A 0.74,0.74 0 1,1 21.04,20.3 A 0.74,0.74 0 1,1 19.56,20.3 Z"/>
</svg>
